<?xml version="1.0" encoding="utf-8"?>
<!-- Generator: Adobe Illustrator 22.1.0, SVG Export Plug-In . SVG Version: 6.00 Build 0)  -->
<svg version="1.1" id="Шар_1" xmlns="http://www.w3.org/2000/svg" xmlns:xlink="http://www.w3.org/1999/xlink" x="0px" y="0px"
	 viewBox="0 0 520 1000" style="enable-background:new 0 0 520 1000;" xml:space="preserve">
<style type="text/css">
	.st0{fill:#CCFFFF;}
</style>
<title>Carrots</title>
<path class="st0" d="M158.2,632.1c-0.4,0-0.7,0-1.1-0.1c0.4,0.2,0.7,0.3,1,0.3c0.3,0,0.7-0.1,1-0.3
	C158.8,632.1,158.5,632.1,158.2,632.1z M158.2,632.1c-0.4,0-0.7,0-1.1-0.1c0.4,0.2,0.7,0.3,1,0.3c0.3,0,0.7-0.1,1-0.3
	C158.8,632.1,158.5,632.1,158.2,632.1z M158.2,632.1c-0.4,0-0.7,0-1.1-0.1c0.4,0.2,0.7,0.3,1,0.3c0.3,0,0.7-0.1,1-0.3
	C158.8,632.1,158.5,632.1,158.2,632.1z M158.2,632.1c-0.4,0-0.7,0-1.1-0.1c0.4,0.2,0.7,0.3,1,0.3c0.3,0,0.7-0.1,1-0.3
	C158.8,632.1,158.5,632.1,158.2,632.1z M158.2,632.1c-0.4,0-0.7,0-1.1-0.1c0.4,0.2,0.7,0.3,1,0.3c0.3,0,0.7-0.1,1-0.3
	C158.8,632.1,158.5,632.1,158.2,632.1z M158.2,632.1c-0.4,0-0.7,0-1.1-0.1c0.4,0.2,0.7,0.3,1,0.3c0.3,0,0.7-0.1,1-0.3
	C158.8,632.1,158.5,632.1,158.2,632.1z M158.2,632.1c-0.4,0-0.7,0-1.1-0.1c0.4,0.2,0.7,0.3,1,0.3c0.3,0,0.7-0.1,1-0.3
	C158.8,632.1,158.5,632.1,158.2,632.1z M158.2,632.1c-0.4,0-0.7,0-1.1-0.1c0.4,0.2,0.7,0.3,1,0.3c0.3,0,0.7-0.1,1-0.3
	C158.8,632.1,158.5,632.1,158.2,632.1z M158.2,632.1c-0.4,0-0.7,0-1.1-0.1c0.4,0.2,0.7,0.3,1,0.3c0.3,0,0.7-0.1,1-0.3
	C158.8,632.1,158.5,632.1,158.2,632.1z M158.2,632.1c-0.4,0-0.7,0-1.1-0.1c0.4,0.2,0.7,0.3,1,0.3c0.3,0,0.7-0.1,1-0.3
	C158.8,632.1,158.5,632.1,158.2,632.1z M486,115.9h-6.6c-25.4,2.2-82.8,68.4-129.2,129.1c16-25.4,30.9-51.6,45.2-78.2
	c14.4-26.6,28.2-53.7,41.9-80.7c8.8-17.7,12.2-53-1.1-69.5C428.6,5.5,409.8,0,394.4,0c-6.6,0-12.1,1.1-16.6,3.3
	c-30.9,12.1-47.5,68.4-59.6,96c-22.1,55.2-41.9,112.6-58.5,170c22.1-83.3,27.6-131.9,27.6-159.6c0-27.7-5.5-34.6-5.5-34.6
	s-14.3-32-33.1-32c-8.8,0-18.8,6.6-29.8,26.5c-30.9,56.3-23.2,205.3-21,235.1c-9.9-2.2-21-4.4-32-6.6c-21-4.4-37.5,1.1-50.8,9.9
	C61,342.2,55.5,452.5,55.5,452.5L0.3,951.4c0,0-1.1,30.9,32,46.4c2.8,0.5,5.5,1.1,8.1,1.5c2.6,0.4,5.1,0.7,7.3,0.7
	c14.2,0.1,27.7-6.4,36.4-17.7l34.2-64c-7.7-3.3-14.3-6.6-22.1-8.8c-15.5-5.5-30.9-9.9-47.5-14.4v-7.7c2.7-0.2,5.4-0.3,8.1-0.3
	c23.1,0,47.4,7.9,69.2,15.8l51.8-97.2c-4.4-2.2-9.9-5.5-14.3-6.6c-14.3-5.5-28.7-11-43-15.5v-8.8c22.1-2.2,45.2,6.6,66.2,14.4
	l130.2-240.6c0,0,36.4-58.5,38.6-113.7c-44.1-28.7-94.9-49.7-142.4-70.6v-8.8c45.3,3.3,91.6,14.4,133.6,33.1
	c-1.1-1.1-1.1-3.3-2.2-4.4c-6.6-12.2-15.5-23.2-30.9-30.9c-1.1-1.1-2.2-1.1-3.3-2.2c32-25.4,168.9-132.5,192.1-166.7
	C527.9,147.9,526.8,115.9,486,115.9z M76.2,844.1c-0.8-0.4-0.8,1.6-0.8,3.5v3.3c-9.1-2.4-18.3-4.2-27.6-5.5
	c-6.6-1.1-24.3-6.6-30.9-2.2v-7.7c0-1.7,0-3.3,0.1-5c0.1-1.6,0.4-3.3,1-5c9.4,1.7,20.1,3.3,30.5,6.1
	C58.7,834.4,68.5,838.2,76.2,844.1c0.1,0,0.2,0.1,0.3,0.2C76.4,844.3,76.3,844.2,76.2,844.1z M111.8,717.4
	c-25.4-3.3-53-8.8-78.4-5.5v-8.8c1.1-5.5,2.2-9.9,3.3-15.4c26.5,0.2,52.4,7.4,75.1,21V717.4z M135.8,549.7h-3.4
	c-2.2,0-4.1-1.8-4.1-4c-0.1-5.1-1.8-12.9-5.9-17c-2.2-2.2-3.3-2.2-6.6-2.2s-5.5,1.1-6.6,3.3c-3.5,4.4-4.2,12.9-3.8,18.4
	c0.1,2.1-1.3,4-3.4,4.4l-3.8,0.7c-2.4,0.4-4.7-1.3-4.8-3.8c-0.5-6.8-0.4-19.5,7-28.5c3.3-4.4,7.7-7.7,14.3-7.7
	c5.5,0,11,1.1,15.5,5.5c7.4,7.4,9.3,19.8,9.8,26.5C140.1,547.6,138.2,549.7,135.8,549.7z M97.3,504.3l7.8-4.8
	c1.3-0.8,2.7-1.6,3.9-2.4s2.3-1.7,3.4-2.6c1-1,2-2,2.8-3.1c0.8-1,1.7-2.4,2.6-3.6l5.3-7.5c1.5-2.1,4.3-2.5,6.3-1.1
	c2.1,1.4,2.5,4.3,1.1,6.3c-0.2,0.3-0.5,0.6-0.7,0.8l-7,6c-1.2,1-2.2,2-3.6,3.1c-1.3,1-2.7,2-4.2,2.8c-1.4,0.8-2.9,1.5-4.5,2
	c-1.5,0.5-2.9,0.9-4.4,1.4L97.3,504.3z M158.1,638.2c-7.1,0-12.5-10.4-12.5-24.1S151,590,158.1,590c7.2,0,12.6,10.4,12.6,24.1
	S165.2,638.2,158.1,638.2z M223.1,558.8c-0.4,2.4-2.8,4-5.2,3.3l-3.7-1c-2-0.6-3.3-2.6-3-4.7c0.9-5.5,1-14-2.1-18.7
	c-0.9-2.3-3-3.6-6.3-3.9s-4.4-0.4-6.8,1.6c-4.5,3.7-6.9,11.4-7.5,16.4c-0.2,2.2-2.3,3.8-4.5,3.6l-3.4-0.3c-2.4-0.2-4.1-2.4-3.7-4.8
	c1.1-6.6,4.1-18.8,12.2-25.5c4.8-4,10.4-4.6,15.9-4c6.6,0.6,10.7,4.3,13.6,9C225.2,539.5,224.1,552.1,223.1,558.8z M234,515.7
	c-2.2-0.8-4.4-1.6-6.7-2.5c-2.3-0.9-4.5-2-6.6-3.3c-2.1-1.3-4.2-2.7-6.1-4.3c-2-1.7-3.6-3.3-5.3-4.9L199,491
	c-1.8-1.7-1.9-4.6-0.2-6.4s4.6-1.9,6.4-0.2c0.2,0.2,0.3,0.4,0.5,0.5l8.6,11.2c1.5,1.8,2.9,3.8,4.3,5.4c1.4,1.7,3,3.2,4.7,4.7
	c1.7,1.4,3.5,2.8,5.5,3.9c2,1.1,4.1,2.3,6.1,3.4l12.4,6.9L234,515.7z M241,453.6c0,0-110.4-19.9-163.4-19.9c-5.5,0-11,0-14.4,1.1
	l8.8-35.3C72.1,399.6,163.7,401.8,241,453.6z M157.1,631.9c0.4,0.2,0.7,0.3,1,0.3c0.3,0,0.7-0.1,1-0.3c-0.3,0.1-0.6,0.1-0.9,0.1
	C157.8,632.1,157.4,632,157.1,631.9z M158.2,632.1c-0.4,0-0.7,0-1.1-0.1c0.4,0.2,0.7,0.3,1,0.3c0.3,0,0.7-0.1,1-0.3
	C158.8,632.1,158.5,632.1,158.2,632.1z M158.2,632.1c-0.4,0-0.7,0-1.1-0.1c0.4,0.2,0.7,0.3,1,0.3c0.3,0,0.7-0.1,1-0.3
	C158.8,632.1,158.5,632.1,158.2,632.1z M158.2,632.1c-0.4,0-0.7,0-1.1-0.1c0.4,0.2,0.7,0.3,1,0.3c0.3,0,0.7-0.1,1-0.3
	C158.8,632.1,158.5,632.1,158.2,632.1z M158.2,632.1c-0.4,0-0.7,0-1.1-0.1c0.4,0.2,0.7,0.3,1,0.3c0.3,0,0.7-0.1,1-0.3
	C158.8,632.1,158.5,632.1,158.2,632.1z M158.2,632.1c-0.4,0-0.7,0-1.1-0.1c0.4,0.2,0.7,0.3,1,0.3c0.3,0,0.7-0.1,1-0.3
	C158.8,632.1,158.5,632.1,158.2,632.1z M158.2,632.1c-0.4,0-0.7,0-1.1-0.1c0.4,0.2,0.7,0.3,1,0.3c0.3,0,0.7-0.1,1-0.3
	C158.8,632.1,158.5,632.1,158.2,632.1z M158.2,632.1c-0.4,0-0.7,0-1.1-0.1c0.4,0.2,0.7,0.3,1,0.3c0.3,0,0.7-0.1,1-0.3
	C158.8,632.1,158.5,632.1,158.2,632.1z M158.2,632.1c-0.4,0-0.7,0-1.1-0.1c0.4,0.2,0.7,0.3,1,0.3c0.3,0,0.7-0.1,1-0.3
	C158.8,632.1,158.5,632.1,158.2,632.1z M158.2,632.1c-0.4,0-0.7,0-1.1-0.1c0.4,0.2,0.7,0.3,1,0.3c0.3,0,0.7-0.1,1-0.3
	C158.8,632.1,158.5,632.1,158.2,632.1z M158.2,632.1c-0.4,0-0.7,0-1.1-0.1c0.4,0.2,0.7,0.3,1,0.3c0.3,0,0.7-0.1,1-0.3
	C158.8,632.1,158.5,632.1,158.2,632.1z"/>
</svg>
