<svg id="Шар_1" data-name="Шар 1" xmlns="http://www.w3.org/2000/svg" viewBox="0 0 520 1000"><defs><style>.cls-1{fill:#f96;}</style></defs><title>Carrots</title><path class="cls-1" d="M486,115.89h-6.62C454,118.1,396.58,184.33,350.22,245h0c32-50.77,59.6-104.85,87.19-158.94,8.83-17.66,12.15-53-1.1-69.53C428.58,5.52,409.82,0,394.37,0q-9.93,0-16.56,3.31c-30.9,12.14-47.46,68.43-59.6,96-22.08,55.19-41.94,112.58-58.5,170h0c44.15-166.67,22.08-194.26,22.08-194.26s-14.35-32-33.12-32c-8.83,0-18.76,6.62-29.8,26.49-30.9,56.29-23.18,205.29-21,235.1-9.93-2.21-21-4.42-32-6.63-21-4.41-37.53,1.11-50.77,9.94C61,342.16,55.52,452.54,55.52,452.54L.33,951.43s-1.11,30.91,32,46.36v0c5.52,1.11,11,2.21,15.45,2.21a45.83,45.83,0,0,0,36.42-17.66l34.22-64c-7.73-3.31-14.35-6.62-22.08-8.83-15.45-5.52-30.9-9.93-47.46-14.35v-7.72h0c25.39-2.21,53,6.62,77.27,15.45L178,805.74c-4.41-2.21-9.93-5.52-14.35-6.62-14.34-5.52-28.69-11-43-15.46v-8.83c22.07-2.2,45.25,6.63,66.22,14.35L317.11,548.57s36.42-58.5,38.63-113.69c-44.15-28.7-94.93-49.67-142.39-70.64v-8.83c45.26,3.31,91.61,14.35,133.56,33.11-1.11-1.1-1.11-3.31-2.21-4.41-6.62-12.15-15.45-23.18-30.91-30.91-1.1-1.1-2.2-1.1-3.31-2.21,32-25.38,168.88-132.45,192.06-166.66C527.92,147.9,526.82,115.89,486,115.89ZM75.38,847.68V851a247.09,247.09,0,0,0-27.59-5.52c-6.62-1.1-24.28-6.62-30.91-2.2v-4.42h0v-3.31h0c0-3.31,0-6.62,1.11-9.93v0c18.76,3.31,43,6.62,58.5,18.76C75.38,843.27,75.38,845.47,75.38,847.68Zm36.43-133.55v3.31c-25.39-3.31-53-8.83-78.37-5.52v-8.83c1.1-5.52,2.21-9.93,3.31-15.45a147.76,147.76,0,0,1,75.06,21ZM95.25,575.06,93,572.85l8.83-8.83,2.21,2.21Zm15.45-8.83,2.21,2.2-8.83,8.83-2.21-2.2Zm2.21,11-1.1-2.2,8.83-8.83,2.2,2.2Zm26.49-23.18-12.14-2.2c1.1-4.42,1.1-16.56-3.31-22.08q-1.65-3.31-6.62-3.31c-3.32,0-4.42,0-6.63,2.21-5.52,5.52-6.62,17.66-5.52,21H93c0-2.21,0-21,9.94-30.91,4.41-4.41,9.93-5.51,15.45-5.51,6.62,0,11,3.31,14.35,7.72C142.71,533.11,139.4,551.88,139.4,554.08ZM165.89,596a10,10,0,0,1-7.72,3.31h-1.11a9.27,9.27,0,0,1-7.72-4.42c-5.52-6.62-3.32-17.66-3.32-17.66l4.42,1.11s-1.1,9.93,2.21,14.35a8.37,8.37,0,0,0,4.41,2.2,10,10,0,0,0,5.52-1.1c3.31-3.31,4.42-11,4.42-14.35h4.41C171.41,578.37,171.41,590.51,165.89,596Zm27.6-14.35,8.83-8.83,2.2,2.21-8.83,8.83Zm8.83,1.1,8.83-8.83,2.2,2.21L204.52,585Zm11,2.21-1.1-1.1,8.83-8.83,2.21,2.2Zm12.14-23.18-12.14-2.21c1.11-4.41,1.11-16.55-3.31-22.07q-1.65-3.31-6.62-3.31c-3.31,0-4.42,0-6.62,2.2-5.52,4.42-6.63,16.56-6.63,21H178c0-2.21,0-21,9.94-30.91,4.41-4.41,9.93-5.52,15.45-5.52,6.62,0,11,3.31,14.35,7.73C227.7,540.84,225.49,559.6,225.49,561.81ZM241,453.64S130.57,433.77,77.59,433.77c-5.52,0-11,0-14.35,1.11l8.83-35.32S163.68,401.77,241,453.64Z"/></svg>
