<svg id="Шар_1" data-name="Шар 1" xmlns="http://www.w3.org/2000/svg" viewBox="0 0 968 356"><defs><style>.cls-1{fill:#f96;}.cls-2{fill:#c33;}</style></defs><title>LogoHome</title><path class="cls-1" d="M477.71,120.13C461.78,87.34,436.6,65.52,404.92,57c-28.85-7.74-59-2.83-86.8,13.42-20.27-16.28-43.74-24.91-68.84-24.91s-48.64,8.63-68.89,24.91C152.58,54.22,122.46,49.3,93.63,57,62,65.52,36.77,87.34,20.84,120.13c-26.93,55.38-24.19,138.25,7,211.1l1.56,3.63H125.5l-16.42-38.39c-17.59-41.16-26.25-101.66-8.72-137.7,6.7-13.82,13.84-15.73,16.18-16.35,13.84-3.72,30.13,11.83,36.51,18.68a44.19,44.19,0,0,0,70.25-7.35c6-9.24,15.21-19.81,26-19.81,11.07,0,20.52,11.27,26.51,20.73a44.21,44.21,0,0,0,70.4,5.66c6.77-7.15,22.42-21.51,35.83-17.91,2.33.62,9.45,2.53,16.18,16.35,17.5,36,8.85,96.54-8.73,137.7l-16.42,38.39H469.2l1.56-3.63C501.9,258.38,504.62,175.51,477.71,120.13Z"/><path class="cls-1" d="M610.79,135.68c2.6-3.18,7.23-8.1,13.31-15.33,11.57-13.6,17.93-24.88,19.38-33.85,1.45-10.42-1.16-17.36-8.39-20.55-1.16-.28-1.74-.57-1.74-.86,0-.87.87-.87,2.61-.29,4.34,1.73,7.52,5.78,9,12.44a35.14,35.14,0,0,1-.58,19.67,116.51,116.51,0,0,1-17.07,33.85l-4.34,5.79L595.74,173c-1.44,2-3.47,4.34-5.78,6.95l4.91-3.47c11.87-8.4,21.41-12.44,28.65-12.44,7.81,0,11,4.34,10.12,13-.29,4.92-3.76,11.29-9.83,19.1-4.34,5.5-10.71,13-19.39,22.28-5.21,5.49-8.68,9-10.7,10.41-4.34,3.19-9,4-13.89,2.32q-6.51-2.17-4.34-3.47c2.6-.29,6.08-2.32,10.7-5.79,7.24-5.5,15.34-13.89,24.6-25.17,7.23-8.68,11-15.91,11.57-21.7.29-3.76-1.16-5.5-4.92-5.5s-7.52,1.16-11.86,3.47A145.34,145.34,0,0,0,583,188.63c-9.83,12.44-20.83,24.88-33,37.9a14.69,14.69,0,0,1-11,5.21,13,13,0,0,1-9-3.19c-.87-.86-1.16-1.15-.58-1.15,3.76-.87,9.55-4.92,17.94-12.73s20.83-22.57,37.32-44.27Q593,158.69,610.79,135.68Z"/><path class="cls-1" d="M680.22,199.33c-23.43,22.28-41.37,33.56-54.1,33.56-7.81,0-11.28-3.47-10.13-10.7.87-6.08,4.92-13.6,12.16-22.28,13-15.91,26.61-26.33,40.79-31.53q12.15-4.78,21.7-3.48c5.5.58,9.26,3.18,11.28,7.52a85.65,85.65,0,0,1,7.81-8.38,14.27,14.27,0,0,1,10.42-3.48c2,0,2.89.29,3.18.58,0,0-.86,1.16-2.89,3.76q-10.85,13-14.76,18.23c-10.7,12.73-16.78,20.54-18.51,23.44-7.23,11-10.42,17.93-9.84,21.12.29,2,1.45,3.18,4,3.18,5.79.29,13.6-4.05,23.15-12.73a2.46,2.46,0,0,1,2.6-.87c.29.29,0,1.16-1.16,2.31-10.7,9.84-20,14.47-27.48,14.18-6.37-.29-9.84-2.89-10.71-8.1-.86-4.92,2-11.86,8.68-21.41C677.33,202.8,678.78,201.36,680.22,199.33Zm11.87-31a17.74,17.74,0,0,0-7.82,0c-12.15,2.6-25.17,11.86-39.34,27.77-10.42,11.57-16.2,20.54-17.07,26.62-.58,3.18.58,4.92,3.47,5.49,2,.58,6.07-.57,11.57-3.76,17.07-9.54,33.27-23.14,48.61-41.08l3.76-4.63c2-2.89,2.89-4.92,2.89-5.79C697.87,170.69,695.85,169.24,692.09,168.38Z"/><path class="cls-1" d="M610.21,321.14c-1.74,0-2.61-.29-2.61-1.16,0-.58.58-1.16,1.45-2,12.44-13,21.41-22.85,27.2-28.93,17.07-17.36,33.27-35.3,48.89-53.81L732,179.66c8.39-10.13,15.92-15,22.28-14.76,2,0,2.89.29,2.89.87L754.29,169l-13,15.05,10.13-7.52c11.28-7.82,20.25-11.87,27.48-11.87,8.1.29,11.87,3.77,11.29,11-.29,6.36-4,13.89-11,22.85C767,214.38,754,224.79,739.82,230.29a42.31,42.31,0,0,1-21.69,3.18c-7.53-1.16-11-4.05-10.71-8.68L685.72,250c-17.65,19.68-29.8,33-36.74,40.22l-12.15,13-12.16,13C621.49,319.4,616.86,321.14,610.21,321.14ZM712.63,219.29a15.17,15.17,0,0,0-2.9,5.79c.29,2.61,2.61,4,6.66,4.92a19.06,19.06,0,0,0,8.1,0c12.44-2.89,25.17-12.44,38.48-28.93q13.89-17.35,14.76-26c.29-3.18-1.16-4.92-3.77-5.79-2.6-.29-6.36.87-11.57,3.76a133.16,133.16,0,0,0-24,16.78A155.93,155.93,0,0,0,721.31,208l-3.76,4.63Z"/><path class="cls-1" d="M685.72,321.14c-1.74,0-2.6-.29-2.6-1.16,0-.58.57-1.16,1.44-2C697,304.93,706,295.1,711.76,289c17.07-17.36,33.27-35.3,48.89-53.81l46.87-55.55c8.39-10.13,15.92-15,22.28-14.76,2,0,2.89.29,2.89.87L829.8,169l-13,15.05,10.13-7.52c11.28-7.82,20.25-11.87,27.48-11.87,8.1.29,11.87,3.77,11.29,11-.29,6.36-4,13.89-11,22.85-12.15,15.92-25.17,26.33-39.35,31.83a42.31,42.31,0,0,1-21.69,3.18c-7.53-1.16-11-4.05-10.71-8.68L761.23,250c-17.65,19.68-29.8,33-36.74,40.22l-12.15,13-12.15,13C697,319.4,692.37,321.14,685.72,321.14ZM788.14,219.29a15.12,15.12,0,0,0-2.89,5.79c.29,2.61,2.6,4,6.65,4.92a19.06,19.06,0,0,0,8.1,0c12.44-2.89,25.17-12.44,38.48-28.93q13.89-17.35,14.76-26c.29-3.18-1.16-4.92-3.76-5.79-2.61-.29-6.37.87-11.58,3.76a133.16,133.16,0,0,0-24,16.78A155.93,155.93,0,0,0,796.82,208l-3.76,4.63Z"/><path class="cls-1" d="M752.55,329.24c31.25,0,61.63-16.78,91.14-50.06l46.58-52.65c6.07-6.95,10.41-11.57,12.44-14.18l-11,7.81c-11.57,8.39-21.12,12.44-28.64,12.44-6.65,0-10.13-3.76-10.13-11,0-10.42,11.87-27.2,35.88-50.05,4.63-4.34,9-6.66,13-6.66,1.45,0,3.76.58,7.23,2,3.47,1.15,4,2,2,2.31-3.47.58-7.52,2.9-12.15,6.66a183.39,183.39,0,0,0-26,27.48q-7.81,10-8.68,18.23c-.29,3.76,1.16,5.79,4.92,5.79,3.18,0,7.23-1.16,11.86-3.77a155.8,155.8,0,0,0,34.14-25.74c7.23-9,12.15-15,15-18.23,8.39-10.13,15.92-15,22.28-14.76,2,0,2.89.29,2.89.87l-2.6,3.18-13,14.47c-11.86,14.18-20.25,24.3-24.59,30.09Q906.47,224.79,883.9,250l-30.38,33.85c-15.91,17.07-30.95,29.23-45.13,36.75-16.2,8.39-34.72,12.73-55.84,12.73a111.82,111.82,0,0,1-20.83-1.74c-22.57-4.34-33.85-13-33.85-26.62,0-11.28,8.68-21.41,19.38-21.41a19.88,19.88,0,0,1,7,1.45c-5.5,3.47-9,6.08-10.71,8.1-3.18,3.47-4.63,7.81-4.92,13-.29,11.29,8.68,18.52,27.2,21.7A112.46,112.46,0,0,0,752.55,329.24Z"/><path class="cls-2" d="M588.86,311.72c-3.52,12.89-12,23.29-28.42,23.29-18.31,0-31.34-13.63-31.34-38.09,0-20.06,10.69-38.66,32.22-38.66,18.6,0,26.22,13.18,27.54,23.43h-7.47c-2.2-8.49-7.77-16.55-20.22-16.55-15.52,0-24.31,13.18-24.31,31.49,0,17.43,8.2,31.49,23.58,31.49,10.69,0,17.14-5.42,20.95-16.4Z"/><path class="cls-2" d="M657,319.33a83.59,83.59,0,0,0,1,13.92h-7c-.59-1.76-1-5-1.32-11.28-2.49,5.42-8.93,13-24,13-17,0-24.31-11-24.31-22,0-16.12,12.45-23.44,34.42-23.44h13.91v-7.47c0-7.32-2.2-17.14-18.89-17.14-14.8,0-17,7.77-18.61,13.77h-7.32c.88-8.05,5.86-20.5,26.07-20.5,16.7,0,26.07,7,26.07,23.14Zm-7.17-23.43H635.43c-16.26,0-26.36,4.25-26.36,16.84,0,9.23,6.59,15.53,16.84,15.53,21,0,23.88-13.92,23.88-29.73Z"/><path class="cls-2" d="M681.42,279.93c0-12.3-.14-17.57-.14-19.92h7.17c.15,2.35.3,7,.3,16.41,4.24-11,13.62-17.58,25.48-18.16v7.91c-15.23,1-25.48,11.57-25.48,29v38.08h-7.33Z"/><path class="cls-2" d="M727.56,279.93c0-12.3-.14-17.57-.14-19.92h7.17c.15,2.35.3,7,.3,16.41,4.24-11,13.62-17.58,25.48-18.16v7.91c-15.23,1-25.48,11.57-25.48,29v38.08h-7.33Z"/><path class="cls-2" d="M833.46,296.48c0,20.36-11.28,38.53-33.1,38.53-19.78,0-32.08-16.26-32.08-38.38,0-20.94,11.57-38.37,32.81-38.37C820.57,258.26,833.46,273.49,833.46,296.48Zm-57.42.15c0,17.43,9.38,31.49,24.9,31.49,15.82,0,24.76-13,24.76-31.49,0-17.28-8.79-31.49-25.05-31.49C784,265.14,776,279.05,776,296.63Z"/><path class="cls-2" d="M840.93,260h13.62V237.16h7.32V260H879.3v6.89H861.87v47.6c0,8.2,1.76,12.89,8.79,12.89a27.82,27.82,0,0,0,7.62-.88V333a25.86,25.86,0,0,1-9.08,1.31c-9.38,0-14.65-4.68-14.65-16.4v-51H840.93Z"/><path class="cls-2" d="M897,313c2.49,9.52,9.23,15.23,20.8,15.23,13,0,18.31-6,18.31-14.21,0-8.35-3.52-12.45-19.92-16.4-18.89-4.54-23.58-10.26-23.58-19.92,0-10.11,7.62-19.48,24.17-19.48s24.46,10.1,25.63,20.5H935.1C933.79,272.61,929,265,916.5,265c-12.74,0-16.4,6.3-16.4,12.16,0,6.74,3.51,10.11,18,13.62,20.66,5,25.78,11.72,25.78,22.7,0,13.33-10.84,21.54-26.22,21.54-16.69,0-26.07-8.79-28.12-22Z"/></svg>