<svg id="Шар_1" data-name="Шар 1" xmlns="http://www.w3.org/2000/svg" viewBox="0 0 1000 598"><defs><style>.cls-1{fill:#f96;}</style></defs><title>Logo</title><path class="cls-1" d="M962.65,163.11C930.39,96.69,879.39,52.51,815.22,35.3c-58.43-15.67-119.47-5.71-175.79,27.2C598.38,29.53,550.85,12,500,12S401.52,29.53,360.5,62.5C304.18,29.61,243.16,19.66,184.79,35.3,120.62,52.51,69.62,96.69,37.36,163.11c-54.53,112.15-49,280,14.08,427.52L54.6,598H249.33l-33.25-77.77c-35.64-83.34-53.16-205.88-17.66-278.87,13.57-28,28-31.86,32.77-33.11,28-7.54,61,23.95,73.93,37.83A89.5,89.5,0,0,0,447.4,231.2c12.14-18.71,30.8-40.13,52.62-40.13,22.41,0,41.56,22.84,53.68,42a89.56,89.56,0,0,0,142.59,11.47C710,230,741.69,201,768.85,208.25c4.72,1.25,19.15,5.12,32.77,33.11,35.44,73,17.92,195.53-17.69,278.87L750.68,598H945.41l3.16-7.37C1011.63,443.09,1017.15,275.26,962.65,163.11Z"/></svg>