<svg id="Шар_1" data-name="Шар 1" xmlns="http://www.w3.org/2000/svg" xmlns:xlink="http://www.w3.org/1999/xlink" viewBox="0 0 247 342"><defs><style>.cls-1,.cls-7{fill:none;}.cls-2{clip-path:url(#clip-path);}.cls-3{fill:#9cc;}.cls-4{fill:#cff;}.cls-5{clip-path:url(#clip-path-2);}.cls-6{clip-path:url(#clip-path-3);}.cls-7{stroke:#9cc;stroke-miterlimit:10;}</style><clipPath id="clip-path"><ellipse class="cls-1" cx="528" cy="1019" rx="317" ry="279"/></clipPath><clipPath id="clip-path-2"><rect class="cls-1" x="0.5" y="-5.5" width="247" height="349"/></clipPath><clipPath id="clip-path-3"><rect class="cls-1" x="-1575" y="-10" width="1920" height="360"/></clipPath></defs><title>tilesCarrots</title><g class="cls-2"><rect class="cls-3" x="-134" y="253" width="800" height="1073"/></g><rect class="cls-4" x="1" width="246" height="342"/><g class="cls-5"><g class="cls-6"><path class="cls-7" d="M112.17,210.57,80.72,159.09a22.27,22.27,0,0,0-16.43-10.57,22.77,22.77,0,0,0-6.86.23L51.92,135c-2.43-6.11-7.17-11.15-12-12.79a9.32,9.32,0,0,0-8,.55,9.55,9.55,0,0,0-4.31,5.88,9,9,0,0,0-8.08,8.08A9.55,9.55,0,0,0,13.67,141a9.32,9.32,0,0,0-.55,8c1.64,4.83,6.68,9.56,12.79,12l13.75,5.51a22.63,22.63,0,0,0-.21,7,22.08,22.08,0,0,0,4,10.15l12-12a2.71,2.71,0,0,1,3.83,3.84L47.11,187.69A21.82,21.82,0,0,0,50.33,190l12.18,7.17,8.25-8.26a2.71,2.71,0,1,1,3.83,3.83L67.33,200l35,20.55a7.16,7.16,0,0,0,8.78-1.11l.05-.06A7.13,7.13,0,0,0,112.17,210.57Zm-70-50.92-13.58-5.46c-3.45-1.38-7.49-4.42-8.6-7.56a2.18,2.18,0,0,1,0-1.92c.59-1,2.45-1.07,3.24-1.05A3.63,3.63,0,0,0,26.92,141a3.45,3.45,0,0,0,0-1.91,3.06,3.06,0,0,1,.37-2.7c.65-.65,1.87-.54,2.77-.33a3.71,3.71,0,0,0,4-1.86,3.8,3.8,0,0,0,.43-1.95c0-.82,0-2.58,1-3.16a2.2,2.2,0,0,1,1.91,0c3.15,1.11,6.19,5.15,7.57,8.6l5.46,13.58a22.18,22.18,0,0,0-4.73,3.62A21.86,21.86,0,0,0,42.21,159.65Z"/><path class="cls-7" d="M23.39,102.19,74.87,70.74A22.27,22.27,0,0,0,85.44,54.31a22.71,22.71,0,0,0-.23-6.85L99,41.94c6.11-2.43,11.15-7.16,12.79-12a9.3,9.3,0,0,0-.55-8,9.51,9.51,0,0,0-5.88-4.31,9,9,0,0,0-8.08-8.09,9.55,9.55,0,0,0-4.31-5.88,9.36,9.36,0,0,0-8-.55c-4.83,1.65-9.56,6.68-12,12.79L67.44,29.68a22.94,22.94,0,0,0-7-.21,22,22,0,0,0-10.15,4l12,12a2.71,2.71,0,0,1-3.83,3.83L46.27,37.13a21.82,21.82,0,0,0-2.33,3.22L36.77,52.53,45,60.79a2.71,2.71,0,0,1-3.83,3.83l-7.26-7.26-20.55,35a7.14,7.14,0,0,0,1.11,8.77l.06.06A7.14,7.14,0,0,0,23.39,102.19Zm50.92-70,5.46-13.58c1.38-3.45,4.42-7.49,7.56-8.6a2.22,2.22,0,0,1,1.92,0c1,.6,1.07,2.45,1,3.24A3.66,3.66,0,0,0,94.84,17a3,3,0,0,1,2.7.36c.65.65.54,1.88.33,2.78a3.72,3.72,0,0,0,1.86,4,3.79,3.79,0,0,0,2,.42c.82,0,2.58.06,3.16,1.05a2.22,2.22,0,0,1,0,1.92c-1.11,3.14-5.15,6.18-8.6,7.56L82.66,40.58A22.69,22.69,0,0,0,79,35.85,22.18,22.18,0,0,0,74.31,32.23Z"/><path class="cls-7" d="M8,299.61,22.14,241A22.26,22.26,0,0,0,18,221.88a22.91,22.91,0,0,0-5-4.69l5.82-13.62c2.6-6,2.82-12.95.57-17.52a9.34,9.34,0,0,0-6-5.26,9.53,9.53,0,0,0-7.2,1.11,9,9,0,0,0-5.72-2.05,9,9,0,0,0-5.71,2.05,9.56,9.56,0,0,0-7.21-1.11,9.34,9.34,0,0,0-6,5.26c-2.25,4.57-2,11.48.57,17.52l5.82,13.62A22.71,22.71,0,0,0-17.27,222a22,22,0,0,0-4.36,10h17a2.71,2.71,0,0,1,2.7,2.71,2.71,2.71,0,0,1-2.7,2.71h-17.2a21,21,0,0,0,.62,3.92L-17.67,255H-6a2.72,2.72,0,0,1,2.71,2.71A2.72,2.72,0,0,1-6,260.45H-16.26L-6,299.72a7.13,7.13,0,0,0,7,5.42H1A7.14,7.14,0,0,0,8,299.61ZM-5.48,214.13l-5.75-13.46c-1.46-3.41-2.16-8.42-.73-11.43.57-1.13,1.17-1.3,1.36-1.35,1.13-.3,2.49,1,3,1.54a3.61,3.61,0,0,0,4.44.73,3.51,3.51,0,0,0,1.38-1.32c.52-.79,1.28-1.65,2.17-1.65s1.71.94,2.19,1.73a3.74,3.74,0,0,0,4.18,1.54,3.68,3.68,0,0,0,1.67-1.08c.57-.6,1.87-1.79,3-1.49.19.05.79.22,1.36,1.35,1.43,3,.73,8-.73,11.43L6.32,214.13a22.63,22.63,0,0,0-5.9-.78A22.63,22.63,0,0,0-5.48,214.13Z"/><path class="cls-7" d="M23.39,339.19l51.48-31.45a22.27,22.27,0,0,0,10.57-16.43,22.71,22.71,0,0,0-.23-6.85L99,278.94c6.11-2.43,11.15-7.16,12.79-12a9.3,9.3,0,0,0-.55-8,9.51,9.51,0,0,0-5.88-4.31,9,9,0,0,0-8.08-8.09,9.55,9.55,0,0,0-4.31-5.88,9.36,9.36,0,0,0-8-.55c-4.83,1.65-9.56,6.68-12,12.79l-5.51,13.75a22.94,22.94,0,0,0-7-.21,22,22,0,0,0-10.15,4l12,12a2.71,2.71,0,1,1-3.83,3.83L46.27,274.13a21.82,21.82,0,0,0-2.33,3.22l-7.17,12.18L45,297.79a2.71,2.71,0,1,1-3.83,3.83l-7.26-7.26-20.55,35a7.14,7.14,0,0,0,1.11,8.77l.06.06A7.14,7.14,0,0,0,23.39,339.19Zm50.92-70,5.46-13.58c1.38-3.45,4.42-7.49,7.56-8.6a2.22,2.22,0,0,1,1.92,0c1,.6,1.07,2.45,1,3.24a3.66,3.66,0,0,0,4.54,3.7,3,3,0,0,1,2.7.36c.65.65.54,1.88.33,2.78a3.72,3.72,0,0,0,1.86,4,3.79,3.79,0,0,0,2,.42c.82,0,2.58.06,3.16,1.05a2.22,2.22,0,0,1,0,1.92c-1.11,3.14-5.15,6.18-8.6,7.56l-13.58,5.46A22.69,22.69,0,0,0,79,272.85,22.18,22.18,0,0,0,74.31,269.23Z"/><path class="cls-7" d="M135,178.61,149.14,120A22.26,22.26,0,0,0,145,100.88a22.91,22.91,0,0,0-5-4.69l5.82-13.62c2.6-6,2.82-12.95.57-17.52a9.34,9.34,0,0,0-6-5.26,9.53,9.53,0,0,0-7.2,1.11,9,9,0,0,0-11.43,0,9.56,9.56,0,0,0-7.21-1.11,9.34,9.34,0,0,0-6,5.26c-2.25,4.57-2,11.48.57,17.52l5.82,13.62a22.71,22.71,0,0,0-5.12,4.83,22,22,0,0,0-4.36,10h17a2.71,2.71,0,0,1,0,5.42h-17.2a21,21,0,0,0,.62,3.92L109.33,134H121a2.71,2.71,0,0,1,0,5.42H110.74L121,178.72a7.13,7.13,0,0,0,7,5.42H128A7.14,7.14,0,0,0,135,178.61ZM121.52,93.13l-5.75-13.46c-1.46-3.41-2.16-8.42-.73-11.43.57-1.13,1.17-1.3,1.36-1.35,1.13-.3,2.49,1,3,1.54a3.61,3.61,0,0,0,4.44.73,3.51,3.51,0,0,0,1.38-1.32c.52-.79,1.28-1.65,2.17-1.65s1.71.94,2.19,1.73a3.74,3.74,0,0,0,4.18,1.54,3.68,3.68,0,0,0,1.67-1.08c.57-.6,1.87-1.79,3-1.49.19,0,.79.22,1.36,1.35,1.43,3,.73,8-.73,11.43l-5.75,13.46a22.7,22.7,0,0,0-11.8,0Z"/><path class="cls-7" d="M141.46,219.4l.06.06a7.14,7.14,0,0,0,8.77,1.11l35-20.55L178,192.76a2.71,2.71,0,1,1,3.84-3.83l8.25,8.26L202.29,190a21.82,21.82,0,0,0,3.22-2.33l-12.16-12.16a2.71,2.71,0,1,1,3.83-3.84l12,12a22,22,0,0,0,4-10.15,22.63,22.63,0,0,0-.21-7L226.71,161c6.11-2.43,11.14-7.16,12.79-12a9.32,9.32,0,0,0-.55-8,9.55,9.55,0,0,0-5.88-4.31,9,9,0,0,0-8.09-8.08,9.53,9.53,0,0,0-4.3-5.88,9.32,9.32,0,0,0-8-.55c-4.83,1.64-9.56,6.68-12,12.79l-5.52,13.75a22.71,22.71,0,0,0-6.85-.23,22.27,22.27,0,0,0-16.43,10.57l-31.45,51.48A7.14,7.14,0,0,0,141.46,219.4Zm65.33-64.48a22.69,22.69,0,0,0-4.73-3.62l5.46-13.58c1.38-3.45,4.42-7.49,7.56-8.6a2.22,2.22,0,0,1,1.92,0c1,.58,1.07,2.34,1.05,3.16a3.79,3.79,0,0,0,.42,1.95,3.72,3.72,0,0,0,4,1.86c.9-.21,2.13-.32,2.78.33a3,3,0,0,1,.36,2.7,3.66,3.66,0,0,0,3.7,4.54c.79,0,2.64,0,3.24,1.05a2.22,2.22,0,0,1,0,1.92c-1.11,3.14-5.15,6.18-8.6,7.56l-13.58,5.46A22.18,22.18,0,0,0,206.79,154.92Z"/><path class="cls-7" d="M238.06,101.18l.06-.06a7.14,7.14,0,0,0,1.11-8.77l-20.55-35-7.26,7.26a2.71,2.71,0,0,1-3.83-3.83l8.25-8.26-7.16-12.18a21.17,21.17,0,0,0-2.34-3.22L194.18,49.29a2.71,2.71,0,1,1-3.83-3.83l12-12a22,22,0,0,0-10.15-4,22.94,22.94,0,0,0-7,.21l-5.51-13.75c-2.44-6.11-7.17-11.14-12-12.79a9.36,9.36,0,0,0-8,.55,9.55,9.55,0,0,0-4.31,5.88,9,9,0,0,0-8.08,8.09A9.48,9.48,0,0,0,141.42,22a9.3,9.3,0,0,0-.55,8c1.64,4.83,6.68,9.56,12.79,12l13.75,5.52a22.71,22.71,0,0,0-.23,6.85,22.24,22.24,0,0,0,10.57,16.43l51.48,31.45A7.14,7.14,0,0,0,238.06,101.18ZM173.58,35.85A22.36,22.36,0,0,0,170,40.58l-13.58-5.46c-3.45-1.38-7.49-4.42-8.6-7.56a2.18,2.18,0,0,1,0-1.92c.57-1,2.34-1.07,3.16-1.05a3.79,3.79,0,0,0,1.95-.42,3.72,3.72,0,0,0,1.86-4c-.21-.9-.33-2.13.33-2.78a3,3,0,0,1,2.7-.36,3.66,3.66,0,0,0,4.54-3.7c0-.79,0-2.64,1.05-3.24a2.2,2.2,0,0,1,1.91,0c3.14,1.11,6.19,5.15,7.57,8.6l5.46,13.58A22.18,22.18,0,0,0,173.58,35.85Z"/><path class="cls-7" d="M238.06,338.18l.06-.06a7.14,7.14,0,0,0,1.11-8.77l-20.55-35-7.26,7.26a2.71,2.71,0,1,1-3.83-3.83l8.25-8.26-7.16-12.18a21.17,21.17,0,0,0-2.34-3.22l-12.16,12.16a2.71,2.71,0,1,1-3.83-3.83l12-12a22,22,0,0,0-10.15-4,22.94,22.94,0,0,0-7,.21l-5.51-13.75c-2.44-6.11-7.17-11.14-12-12.79a9.36,9.36,0,0,0-8,.55,9.55,9.55,0,0,0-4.31,5.88,9,9,0,0,0-8.08,8.09,9.48,9.48,0,0,0-5.88,4.31,9.3,9.3,0,0,0-.55,8c1.64,4.83,6.68,9.56,12.79,12l13.75,5.52a22.71,22.71,0,0,0-.23,6.85,22.24,22.24,0,0,0,10.57,16.43l51.48,31.45A7.14,7.14,0,0,0,238.06,338.18Zm-64.48-65.33a22.36,22.36,0,0,0-3.62,4.73l-13.58-5.46c-3.45-1.38-7.49-4.42-8.6-7.56a2.18,2.18,0,0,1,0-1.92c.57-1,2.34-1.07,3.16-1.05a3.79,3.79,0,0,0,1.95-.42,3.72,3.72,0,0,0,1.86-4c-.21-.9-.33-2.13.33-2.78a3,3,0,0,1,2.7-.36,3.66,3.66,0,0,0,4.54-3.7c0-.79,0-2.64,1.05-3.24a2.2,2.2,0,0,1,1.91,0c3.14,1.11,6.19,5.15,7.57,8.6l5.46,13.58A22.18,22.18,0,0,0,173.58,272.85Z"/><path class="cls-7" d="M255,299.61,269.14,241A22.26,22.26,0,0,0,265,221.88a22.91,22.91,0,0,0-5-4.69l5.82-13.62c2.6-6,2.82-12.95.57-17.52a9.34,9.34,0,0,0-6-5.26,9.53,9.53,0,0,0-7.2,1.11,9,9,0,0,0-11.43,0,9.56,9.56,0,0,0-7.21-1.11,9.34,9.34,0,0,0-6,5.26c-2.25,4.57-2,11.48.57,17.52l5.82,13.62a22.71,22.71,0,0,0-5.12,4.83,22,22,0,0,0-4.36,10h17a2.71,2.71,0,0,1,0,5.42h-17.2a21,21,0,0,0,.62,3.92L229.33,255H241a2.71,2.71,0,0,1,0,5.42H230.74L241,299.72a7.13,7.13,0,0,0,7,5.42H248A7.14,7.14,0,0,0,255,299.61Zm-13.46-85.48-5.75-13.46c-1.46-3.41-2.16-8.42-.73-11.43.57-1.13,1.17-1.3,1.36-1.35,1.13-.3,2.49,1,3,1.54a3.61,3.61,0,0,0,4.44.73,3.51,3.51,0,0,0,1.38-1.32c.52-.79,1.28-1.65,2.17-1.65s1.71.94,2.19,1.73a3.74,3.74,0,0,0,4.18,1.54,3.68,3.68,0,0,0,1.67-1.08c.57-.6,1.87-1.79,3-1.49.19.05.79.22,1.36,1.35,1.43,3,.73,8-.73,11.43l-5.75,13.46a22.7,22.7,0,0,0-11.8,0Z"/></g></g></svg>