<?xml version="1.0" encoding="utf-8"?>
<!-- Generator: Adobe Illustrator 22.1.0, SVG Export Plug-In . SVG Version: 6.00 Build 0)  -->
<svg version="1.2" baseProfile="tiny" id="Шар_1"
	 xmlns="http://www.w3.org/2000/svg" xmlns:xlink="http://www.w3.org/1999/xlink" x="0px" y="0px" viewBox="0 0 1000 356"
	 xml:space="preserve">
<path fill="#66CC99" d="M955.9,117.7L487.9,4.6c-53.6-13-109.2-0.9-152.4,33.1c-14.7,11.7-27.2,25.1-37.4,40L189.4,31.2
	C141.2,10.5,86,8.7,49.5,26.7C27.7,37,13.2,53.9,7.6,74.9c-5,19-1.7,39.1,8.9,57.5C5.6,145.8,0,161.3,0,178
	c0,16.6,5.6,32.2,16.4,45.6C5.8,242,2.6,262.1,7.6,281.1c5.6,21,20.1,37.8,41.9,48.2c36.5,17.9,91.7,16.2,139.9-4.5l108.7-46.5
	c10.4,15.3,23.3,29,38.5,40.9c23.8,18.4,51.2,30.3,79.8,34.8V218.4c0-11.9,9.7-21.6,21.6-21.6c11.9,0,21.6,9.7,21.6,21.6v137.3
	c10.6-0.6,21-2.4,31.3-5l109.2-28.3v-93.2c0-11.9,9.7-21.6,21.6-21.6s21.6,9.7,21.6,21.6v81.9l313.4-81.5
	c25.9-6.7,43.2-29.2,43.2-55.8v-0.6C999.8,146.4,982.1,123.9,955.9,117.7z M273.7,225.1l-107.4,45.8C139,282.6,99,288.2,75,276.8
	c-9.1-4.5-10.4-9.3-10.8-10.8c-2.4-9.1,7.8-19.9,12.3-24.2c9.9-9.1,12.3-23.8,5.8-35.5c-2.6-4.8-6.3-8.4-10.6-11
	c-6.3-4.1-13.2-10.2-13.2-17.3c0-7.4,7.6-13.6,13.8-17.5c11-7.1,16-20.8,12.3-33.3c-1.7-5.4-4.8-9.9-8.6-13.4
	c-4.8-4.5-14.3-14.9-11.9-23.8c0.4-1.5,1.7-6.3,10.8-10.8c24-11.5,64-5.8,91.2,5.8l107.4,45.8c-4.1,15.1-6.3,30.9-6.3,47.1
	S269.6,210,273.7,225.1z"/>
</svg>
